<?xml version="1.0" ?>
<!-- Uploaded to: SVG Repo, www.svgrepo.com, Generator: SVG Repo Mixer Tools -->
<svg width="800px" height="800px" viewBox="0 0 32 32" xmlns="http://www.w3.org/2000/svg">
<title/>
<g id="Swing">
<path d="M6.9,3.984a1.625,1.625,0,0,0-3.25,0v.832H6.9Z" style="fill:#444"/>
<path d="M28.35,3.984a1.625,1.625,0,0,0-3.25,0v.832h3.25Z" style="fill:#444"/>
<polygon points="28.35 8.066 27.05 8.066 26.4 8.066 25.1 8.066 25.1 22.613 26.4 22.613 27.05 22.613 28.35 22.613 28.35 8.066" style="fill:#444"/>
<polygon points="26.4 25.603 25.1 25.603 25.1 26.331 26.4 26.331 27.05 26.331 28.35 26.331 28.35 25.603 27.05 25.603 26.4 25.603" style="fill:#444"/>
<rect height="0.65" style="fill:#444" width="24.7" x="3.65" y="6.116"/>
<rect height="1.95" style="fill:#444" width="27.3" x="2.35" y="27.631"/>
<path d="M7.94,8.495A1.5682,1.5682,0,0,0,8.954,9.964a1.4692,1.4692,0,0,0,.585.117h.13a1.4692,1.4692,0,0,0,.585-.117,1.5682,1.5682,0,0,0,1.014-1.469V8.066H7.94Z" style="fill:#444"/>
<path d="M11.502,14.839a2.394,2.394,0,0,0-1.248.338V11.316a2.78,2.78,0,0,1-.585.065h-.13a4.4444,4.4444,0,0,1-.585-.052v7.423h5.382V11.316a2.78,2.78,0,0,1-.585.065h-.13a4.4444,4.4444,0,0,1-.585-.052v3.848a2.407,2.407,0,0,0-1.261-.338Z" style="fill:#444"/>
<path d="M13.621,10.081h.13a1.4692,1.4692,0,0,0,.585-.117A1.5682,1.5682,0,0,0,15.35,8.495V8.066H12.022v.429a1.5554,1.5554,0,0,0,1.014,1.469A1.4692,1.4692,0,0,0,13.621,10.081Z" style="fill:#444"/>
<rect height="1.482" style="fill:#444" width="7.618" x="7.836" y="20.052"/>
<path d="M16.65,8.495a1.5682,1.5682,0,0,0,1.014,1.469,1.4692,1.4692,0,0,0,.585.117h.13a1.4692,1.4692,0,0,0,.585-.117,1.5682,1.5682,0,0,0,1.014-1.469V8.066H16.65Z" style="fill:#444"/>
<path d="M22.331,10.081h.13a1.4692,1.4692,0,0,0,.585-.117A1.5682,1.5682,0,0,0,24.06,8.495V8.066H20.732v.429a1.5682,1.5682,0,0,0,1.014,1.469A1.4692,1.4692,0,0,0,22.331,10.081Z" style="fill:#444"/>
<path d="M20.225,14.839a2.407,2.407,0,0,0-1.261.338V11.316a2.78,2.78,0,0,1-.585.065h-.13a4.4444,4.4444,0,0,1-.585-.052v7.423h5.382V11.316a2.78,2.78,0,0,1-.585.065h-.13a4.4444,4.4444,0,0,1-.585-.052v3.848a2.407,2.407,0,0,0-1.261-.338Z" style="fill:#444"/>
<rect height="1.482" style="fill:#444" width="7.618" x="16.546" y="20.052"/>
<polygon points="5.6 22.613 6.9 22.613 6.9 8.066 5.6 8.066 4.95 8.066 3.65 8.066 3.65 22.613 4.95 22.613 5.6 22.613" style="fill:#444"/>
<polygon points="5.6 24.303 6.9 24.303 6.9 23.913 5.6 23.913 4.95 23.913 3.65 23.913 3.65 24.303 4.95 24.303 5.6 24.303" style="fill:#444"/>
<polygon points="5.6 26.331 6.9 26.331 6.9 25.603 5.6 25.603 4.95 25.603 3.65 25.603 3.65 26.331 4.95 26.331 5.6 26.331" style="fill:#444"/>
<polygon points="28.35 23.913 27.05 23.913 26.4 23.913 25.1 23.913 25.1 24.303 26.4 24.303 27.05 24.303 28.35 24.303 28.35 23.913" style="fill:#444"/>
</g>
</svg>