<?xml version="1.0" encoding="iso-8859-1"?>
<!-- Uploaded to: SVG Repo, www.svgrepo.com, Generator: SVG Repo Mixer Tools -->
<svg fill="#000000" height="800px" width="800px" version="1.1" id="Layer_1" xmlns="http://www.w3.org/2000/svg" xmlns:xlink="http://www.w3.org/1999/xlink" 
	 viewBox="0 0 511.999 511.999" xml:space="preserve">
<g>
	<g>
		<path d="M498.337,87.675H13.663C6.118,87.675,0,93.793,0,101.338v103.305c0,7.545,6.118,13.663,13.663,13.663h30.742v192.354
			c0,7.545,6.118,13.663,13.663,13.663h51.05c7.545,0,13.663-6.118,13.663-13.663V281.132h266.434v129.529
			c0,7.545,6.118,13.663,13.663,13.663h51.05c7.545,0,13.663-6.118,13.663-13.663V218.306h30.742
			c7.545,0,13.663-6.118,13.663-13.663V101.338C512,93.793,505.882,87.675,498.337,87.675z M95.456,267.468v129.531H71.732V218.306
			h23.724V267.468z M389.216,253.806H122.782v-35.499h266.434V253.806z M440.268,396.999h-23.724V267.47v-49.162h23.724V396.999z
			 M484.673,190.98h-30.742h-51.05H109.12H58.069H27.327v-24.326h356.422c7.545,0,13.663-6.118,13.663-13.663
			s-6.118-13.663-13.663-13.663H27.327v-24.326h457.347V190.98z"/>
	</g>
</g>
<g>
	<g>
		<path d="M438.131,150.329c-0.178-0.876-0.437-1.737-0.779-2.57c-0.342-0.82-0.765-1.612-1.257-2.35
			c-0.49-0.751-1.064-1.448-1.694-2.077c-3.182-3.184-7.896-4.633-12.337-3.744c-0.861,0.178-1.722,0.451-2.555,0.792
			c-0.821,0.342-1.612,0.765-2.35,1.257c-0.753,0.492-1.45,1.066-2.078,1.694c-0.628,0.629-1.202,1.325-1.708,2.077
			c-0.492,0.738-0.915,1.53-1.257,2.35c-0.342,0.833-0.601,1.694-0.779,2.57c-0.178,0.874-0.258,1.776-0.258,2.663
			c0,0.888,0.082,1.791,0.258,2.664c0.178,0.874,0.451,1.735,0.792,2.555c0.342,0.833,0.751,1.626,1.257,2.364
			c0.492,0.751,1.066,1.448,1.694,2.077c0.629,0.629,1.325,1.202,2.078,1.694c0.738,0.49,1.529,0.915,2.35,1.257
			c0.833,0.342,1.694,0.6,2.555,0.779c0.887,0.178,1.79,0.272,2.678,0.272c0.887,0,1.79-0.094,2.664-0.272
			c0.874-0.179,1.735-0.437,2.554-0.779c0.833-0.342,1.626-0.767,2.364-1.257c0.751-0.492,1.448-1.066,2.077-1.694
			c0.63-0.628,1.204-1.325,1.694-2.077c0.492-0.738,0.915-1.53,1.257-2.364c0.342-0.82,0.601-1.679,0.779-2.555
			c0.178-0.874,0.273-1.776,0.273-2.664C438.404,152.105,438.308,151.202,438.131,150.329z"/>
	</g>
</g>
</svg>