<?xml version="1.0" encoding="iso-8859-1"?>
<!-- Uploaded to: SVG Repo, www.svgrepo.com, Generator: SVG Repo Mixer Tools -->
<!DOCTYPE svg PUBLIC "-//W3C//DTD SVG 1.1//EN" "http://www.w3.org/Graphics/SVG/1.1/DTD/svg11.dtd">
<svg fill="#000000" version="1.1" id="Capa_1" xmlns="http://www.w3.org/2000/svg" xmlns:xlink="http://www.w3.org/1999/xlink" 
	 width="800px" height="800px" viewBox="0 0 211.224 211.224"
	 xml:space="preserve">
<g>
	<path d="M155.134,0H56.092c-10.55,0-19.133,8.582-19.133,19.13v166.276c0,9.414,6.842,17.242,15.812,18.822
		c1.146,4.031,4.854,6.995,9.248,6.995h6.107c4.282,0,7.916-2.813,9.16-6.688h56.652c1.244,3.875,4.879,6.688,9.16,6.688h6.109
		c4.394,0,8.1-2.964,9.246-6.995c8.97-1.58,15.812-9.408,15.812-18.822V19.13C174.266,8.582,165.683,0,155.134,0z M51.497,19.13
		c0-2.532,2.062-4.593,4.596-4.593h42.252v78.345c-4.526,0.055-8.181,3.738-8.181,8.277v17.924c0,4.538,3.654,8.221,8.181,8.276V190
		H56.092c-2.534,0-4.596-2.061-4.596-4.594L51.497,19.13L51.497,19.13z M159.729,185.406c0,2.533-2.062,4.594-4.596,4.594h-42.252
		v-80.809c4.525-0.056,8.182-3.736,8.182-8.274V82.993c0-4.54-3.654-8.223-8.182-8.278V14.537h42.252
		c2.534,0,4.596,2.061,4.596,4.593V185.406z"/>
</g>
</svg>